<svg height="40" viewBox="0 0 198 40" width="198" xmlns="http://www.w3.org/2000/svg"><g fill="none" fill-rule="evenodd" transform="translate(-.317 .357)"><path d="m10.873 26.307 3.744-10.548h.081l3.623 10.548zm3.744-25.754-14.01 36.866h6.361l2.255-6.4h10.749l2.174 6.4h6.562l-14.01-36.866zm34.261 17.783h6.119c-.152375-1.5532695-.6170037-3.0597415-1.366-4.429-.6946164-1.2530207-1.6322513-2.3548607-2.758-3.241-1.1335931-.88281091-2.4147635-1.55759227-3.784-1.993-1.4510612-.46261136-2.96601-.69344785-4.489-.684-2.0394021-.03207894-4.0626806.36589838-5.938 1.168-1.7001985.73628475-3.2187071 1.835659-4.449 3.221-1.2317425 1.4072268-2.1767677 3.0414886-2.782 4.811-.6581256 1.92395-.9847685 3.9456872-.966 5.979-.0167519 1.9936485.3100254 3.9752859.966 5.858.6046755 1.7448931 1.5488273 3.352806 2.778 4.731 1.2370144 1.3626923 2.7549187 2.4408172 4.449 3.16 1.8787798.7886447 3.9006642 1.1791973 5.938 1.147 1.6582791.0189773 3.3070008-.2534967 4.871-.805 1.4320375-.5107882 2.7462695-1.3053135 3.864-2.336 1.1201496-1.0467949 2.0230188-2.3040836 2.657-3.7.6943254-1.5393594 1.1165753-3.1874197 1.248-4.871h-6.116c-.1529722 1.7284567-.8508379 3.3636965-1.993 4.67-1.1810778 1.2196789-2.8338475 1.8659706-4.529 1.771-1.2582682.0385442-2.5054769-.2454599-3.623-.825-.9688925-.5280343-1.7973087-1.2803295-2.416-2.194-.6288507-.9384942-1.0856409-1.9814252-1.349-3.08-.283385-1.1528271-.4254291-2.3358557-.423-3.523-.0031711-1.2336953.1388046-2.4634804.423-3.664.2580438-1.1252153.7148757-2.195333 1.349-3.16.6140687-.9228375 1.443189-1.6826356 2.416-2.214 1.1175231-.5795401 2.3647318-.8635442 3.623-.825.7611712-.0030198 1.5170793.1262358 2.234.382.6930835.2449903 1.3395874.6057746 1.912 1.067.5555696.4471709 1.0318927.9846824 1.409 1.59.3765107.6057795.62337 1.2830252.725 1.989zm9.179-9.662v28.745h5.918v-20.17h.081l7.045 20.17h4.871l7.045-20.371h.081v20.371h5.918v-28.745h-8.9l-6.357 19.767h-.081l-6.723-19.767zm35.026 0v28.745h21.821v-5.318h-15.5v-7.045h13.927v-4.912h-13.926v-6.16h15.178v-5.314z" fill="#c23f81" fill-rule="nonzero"/><text fill="#74667e" font-family="OriyaMN-Bold, Oriya MN" font-size="23" font-weight="bold" transform="translate(116.042 13.254)"><tspan x="0" y="20">gallery</tspan></text><g fill-rule="nonzero" transform="matrix(0 1 -1 0 197.999 3.536)"><path d="m3.191 0h12.366v12.366h-12.366z" fill="#c23f81"/><path d="m0 2.792h12.765v12.765h-12.765z" fill="#fff"/></g></g></svg>