
<svg width="145px" height="29px" viewBox="0 0 145 29" version="1.1" xmlns="http://www.w3.org/2000/svg" xmlns:xlink="http://www.w3.org/1999/xlink">
    <g id="Page-1" stroke="none" stroke-width="1" fill="none" fill-rule="evenodd">
        <g id="Home" transform="translate(-447.000000, -1336.000000)">
            <g id="Footer">
                <g transform="translate(0.000000, 1318.000000)">
                    <g id="Grupo_2" transform="translate(445.990000, 17.000000)">
                        <g id="logo-2" transform="translate(0.403000, 0.446000)">
                            <path d="M8.099,19.349 L10.831,11.651 L10.891,11.651 L13.535,19.351 L8.099,19.349 Z M10.831,0.553 L0.607,27.458 L5.249,27.458 L6.894,22.786 L14.739,22.786 L16.331,27.458 L21.12,27.458 L10.891,0.553 L10.831,0.553 Z M35.831,13.531 L40.297,13.531 C40.1847859,12.3973035 39.844646,11.2979713 39.297,10.299 C38.7899748,9.38462824 38.1056178,8.58060223 37.284,7.934 C36.4592578,7.29077796 35.5272304,6.79852664 34.531,6.48 C33.4720819,6.14212176 32.366497,5.97338169 31.255,5.98 C29.7665339,5.95651835 28.2898123,6.24681986 26.921,6.832 C25.6801471,7.36946047 24.5719037,8.17188738 23.674,9.183 C22.7762694,10.2102583 22.0877242,11.4028989 21.647,12.694 C21.1667497,14.0979479 20.9283619,15.5732466 20.942,17.057 C20.9297969,18.5119091 21.1682832,19.9580496 21.647,21.332 C22.0882609,22.6051486 22.7771667,23.7783616 23.674,24.784 C24.5768253,25.7784456 25.6846326,26.5652037 26.921,27.09 C28.2922758,27.6655931 29.768007,27.9505924 31.255,27.927 C32.4652906,27.9407019 33.6685788,27.741677 34.81,27.339 C35.8551219,26.9678799 36.8146054,26.3896729 37.631,25.639 C38.4484352,24.8751237 39.1073214,23.9576442 39.57,22.939 C40.0767987,21.8155408 40.3850277,20.6127371 40.481,19.384 L36.012,19.384 C35.9004327,20.6453041 35.3913113,21.8386231 34.558,22.792 C33.6962496,23.6823101 32.4901259,24.1541764 31.253,24.085 C30.3349188,24.1137698 29.4247378,23.9072234 28.609,23.485 C27.9021038,23.099953 27.2976061,22.5513448 26.846,21.885 C26.3872232,21.1999826 26.0540276,20.4387795 25.862,19.637 C25.6550916,18.795707 25.551329,17.9323614 25.553,17.066 C25.5507835,16.1656334 25.6544963,15.268132 25.862,14.392 C26.0502248,13.5709227 26.383447,12.7900179 26.846,12.086 C27.2940777,11.4124671 27.8990991,10.8578928 28.609,10.47 C29.4247378,10.0477766 30.3349188,9.84123023 31.253,9.87 C31.8087182,9.86788391 32.3605831,9.9622863 32.884,10.149 C33.391464,10.3274002 33.8648833,10.5908242 34.284,10.928 C34.6894067,11.2545527 35.0369319,11.6470399 35.312,12.089 C35.5819818,12.5290255 35.7586371,13.0198482 35.831,13.531 Z M42.531,6.479 L42.531,27.458 L46.85,27.458 L46.85,12.738 L46.909,12.738 L52.051,27.458 L55.606,27.458 L60.751,12.591 L60.81,12.591 L60.81,27.458 L65.131,27.458 L65.131,6.48 L58.631,6.48 L53.994,20.901 L53.931,20.901 L49.031,6.48 L42.531,6.479 Z M68.093,6.479 L68.093,27.458 L84.022,27.458 L84.022,23.58 L72.71,23.58 L72.71,18.438 L82.876,18.438 L82.876,14.853 L72.71,14.853 L72.71,10.353 L83.787,10.353 L83.787,6.475 L68.093,6.479 Z" id="Trazado_2-2" fill="#FFFFFF" fill-rule="nonzero"></path>
                            <g id="gallery-4" transform="translate(84.852000, 9.822000)" fill="#FFFFFF" font-family="OriyaMN-Bold, Oriya MN" font-size="17" font-weight="bold">
                                <text id="gallery">
                                    <tspan x="0" y="15">gallery</tspan>
                                </text>
                            </g>
                            <g id="arrow-2" transform="translate(138.664000, 8.730000) rotate(90.000000) translate(-138.664000, -8.730000) translate(132.664000, 2.730000)" fill-rule="nonzero">
                                <rect id="Rectángulo_10-2" fill="#C23F81" x="2.329" y="0" width="9.025" height="9.025"></rect>
                                <rect id="Rectángulo_11-2" fill="#313131" x="0" y="2.038" width="9.316" height="9.316"></rect>
                            </g>
                        </g>
                    </g>
                </g>
            </g>
        </g>
    </g>
</svg>