<svg
width="25px"
height="25px"
viewBox="0 0 30 30"
version="1.1"
xmlns="http://www.w3.org/2000/svg"
xmlns:xlink="http://www.w3.org/1999/xlink"
>
<g id="Page-1" stroke="none" stroke-width="1" fill="none" fill-rule="evenodd">
<g
    id="Home"
    transform="translate(-1154.000000, -328.000000)"
    fill="#FFFFFF"
    fill-rule="nonzero"
>
    <g id="Search">
        <g transform="translate(802.000000, 319.000000)">
            <g id="surface1" transform="translate(352.086000, 9.000000)">
                <path
                    d="M20.555,17.763 C23.8815728,13.0632079 23.1245203,6.61059502 18.8004537,2.80841392 C14.4763871,-0.993767171 7.97994333,-0.919202893 3.74428504,2.98122421 C-0.49137326,6.88165132 -1.10012353,13.3499405 2.33344443,17.9721417 C5.76701238,22.5943429 12.1354734,23.8796623 17.093,20.951 L25.393,29.201 C26.2930631,30.1238053 27.7676407,30.1519301 28.7022379,29.2641175 C29.6368351,28.3763049 29.6844077,26.9022265 28.809,25.956 C28.781,25.926 28.753,25.898 28.723,25.87 L20.555,17.763 Z M11.361,18.532 C7.35521481,18.5306195 4.10880984,15.2825358 4.10950011,11.2767504 C4.11019038,7.27096506 7.35771457,4.02400043 11.3635,4.02400043 C15.3692854,4.02400043 18.6168096,7.27096506 18.6174999,11.2767504 C18.6181902,15.2825358 15.3717852,18.5306195 11.366,18.532 L11.361,18.532 Z"
                    id="Trazado_1"
                ></path>
            </g>
        </g>
    </g>
</g>
</g>
</svg>